<?xml version="1.0" encoding="UTF-8" standalone="no"?>
<!-- Created with Inkscape (http://www.inkscape.org/) -->

<svg
   width="150.74199mm"
   height="109.77185mm"
   viewBox="0 0 150.74199 109.77185"
   version="1.1"
   id="svg1703"
   inkscape:version="1.3.2 (091e20e, 2023-11-25)"
   sodipodi:docname="robot_top_view.svg"
   inkscape:export-filename="robot_top_view.svg"
   inkscape:export-xdpi="96"
   inkscape:export-ydpi="96"
   xmlns:inkscape="http://www.inkscape.org/namespaces/inkscape"
   xmlns:sodipodi="http://sodipodi.sourceforge.net/DTD/sodipodi-0.dtd"
   xmlns="http://www.w3.org/2000/svg"
   xmlns:svg="http://www.w3.org/2000/svg">
  <sodipodi:namedview
     id="namedview1705"
     pagecolor="#505050"
     bordercolor="#eeeeee"
     borderopacity="1"
     inkscape:showpageshadow="0"
     inkscape:pageopacity="0"
     inkscape:pagecheckerboard="0"
     inkscape:deskcolor="#505050"
     inkscape:document-units="mm"
     showgrid="false"
     inkscape:zoom="0.70737049"
     inkscape:cx="334.33682"
     inkscape:cy="183.77922"
     inkscape:window-width="1296"
     inkscape:window-height="659"
     inkscape:window-x="0"
     inkscape:window-y="25"
     inkscape:window-maximized="0"
     inkscape:current-layer="layer1" />
  <defs
     id="defs1700">
    <clipPath
       clipPathUnits="userSpaceOnUse"
       id="clipPath2077">
      <path
         id="path2079"
         style="fill:#ff0000;fill-opacity:1;fill-rule:nonzero;stroke:none;stroke-width:0.264583"
         d="M 0.53020021,99.723631 V 274.3626 H 204.66658 V 99.723631 Z M 78.861338,105.40442 c 0.153993,0.005 0.281898,0.16696 0.214455,0.46095 -0.2418,1.05404 -0.489571,2.10695 -0.731221,3.16105 -0.191262,0.84673 -0.393356,1.69084 -0.598929,2.53421 0.461917,-0.77059 0.922343,-1.54222 1.38648,-2.31149 0.278093,-0.46905 0.569923,-0.93012 0.872297,-1.38389 0.09661,-0.13542 0.250206,-0.41053 0.442867,-0.42323 0.07731,-0.005 0.153419,0.0242 0.22996,0.0362 0.560893,0.088 -0.826627,0.4867 -0.259416,0.5116 0.05786,0.003 0.116293,0.0157 0.173633,0.008 0.01,-0.001 0.01855,-0.004 0.02635,-0.007 0.05298,-0.0634 0.04801,-0.0199 0,0 -0.0011,0.001 -0.0016,0.002 -0.0026,0.003 -0.02077,0.0254 -0.03951,0.0522 -0.05839,0.0791 -0.02569,0.0366 -0.05044,0.074 -0.07545,0.1111 -0.297651,0.44658 -0.584153,0.90051 -0.857827,1.3622 -0.550074,0.91171 -1.095502,1.82661 -1.643827,2.73936 -0.08452,0.13532 -0.165836,0.27218 -0.253217,0.40566 -0.06853,0.1047 -0.109191,0.24081 -0.214455,0.30851 -0.403389,0.25926 -0.549799,0.26394 -0.648539,-0.13591 -0.01566,-0.0634 0.08722,-0.46837 0.08992,-0.48007 0.285009,-1.15962 0.568886,-2.31974 0.83199,-3.48454 0.238551,-1.04058 0.481423,-2.08047 0.723471,-3.12023 0.06034,-0.25921 0.216557,-0.37823 0.352433,-0.37413 z" />
    </clipPath>
  </defs>
  <g
     inkscape:label="Layer 1"
     inkscape:groupmode="layer"
     id="layer1"
     transform="translate(-13.183506,-0.26795)">
    <path
       id="path792"
       clip-path="url(#clipPath2077)"
       style="stroke-width:0.0393518"
       transform="rotate(180,96.646469,111.19174)"
       d="m 104.90974,112.34399 v 5.2e-4 l -5.1e-4,5.2e-4 -0.002,0.001 v 0.002 c -2.0012,0 -4.04048,0.1936 -5.520078,0.58136 -1.040822,0.2715 -1.768992,0.46451 -2.349727,0.50074 -0.02622,0.009 -0.05771,0.0139 -0.09457,0.0134 -0.08431,-10e-4 -0.168578,0.004 -0.252698,0.009 -0.130793,0.009 -0.260908,0.0215 -0.391707,0.0305 -0.124316,0.01 -0.248956,0.0173 -0.373104,0.0289 -0.121046,0.0107 -0.242281,0.0219 -0.363285,0.0331 -0.124077,0.0103 -0.24801,0.0179 -0.372071,0.0284 -0.05732,0.004 -0.114493,0.01 -0.171565,0.016 -0.01965,0.004 -0.03929,0.008 -0.05891,0.0124 0.0298,0.0614 0.06511,0.13224 0.06511,0.14263 0,0.12245 -0.151999,0.20412 -0.341581,0.20412 -0.05946,0 -0.137347,-0.0854 -0.219108,-0.19482 -0.03077,0.007 -0.06169,0.0142 -0.0925,0.0217 -0.03223,0.007 -0.06477,0.0141 -0.09767,0.0171 -0.04259,0.005 -0.08483,0.0121 -0.127124,0.0191 -0.07725,0.0118 -0.154617,0.0209 -0.232027,0.0315 -0.05562,0.007 -0.111302,0.0149 -0.167432,0.0155 -0.188424,0.044 -1.202427,0.27953 -2.516642,0.54002 -1.479405,0.28559 -2.845637,0.73489 -3.073197,1.06143 -0.227601,0.28572 -0.645232,2.12297 -0.872815,4.08193 l -0.367936,2.90163 c -0.0011,0.0164 -0.002,0.0327 -0.0031,0.0491 -0.03266,0.43249 -0.06313,0.86549 -0.100769,1.29759 -0.02791,0.29264 -0.05365,0.58567 -0.07286,0.87902 -0.01213,0.16734 -0.01162,0.33521 -0.02635,0.5023 -0.01636,0.11012 -0.03179,0.22018 -0.03979,0.33124 -0.0059,0.14746 -0.01097,0.2944 -0.02584,0.44132 -0.01709,0.14523 -0.02691,0.29064 -0.03411,0.43666 -0.0035,0.14305 -0.02958,0.28439 -0.04548,0.42633 -0.01098,0.10266 -0.0151,0.20589 -0.0186,0.30903 -0.0031,0.10199 -0.0036,0.20388 -0.0041,0.30592 -5.47e-4,0.12111 -4.11e-4,0.24217 -5.17e-4,0.36329 -9.2e-5,0.12771 -5.02e-4,0.25612 -5.17e-4,0.38396 -1.3e-5,0.1343 2e-6,0.26825 0,0.40255 0.0038,0.13446 -0.01922,0.2677 -0.03669,0.4005 -0.0076,0.0541 -0.01324,0.10818 -0.01654,0.16278 -0.002,0.0285 -0.0025,0.0573 -0.0031,0.0858 v 3.87108 l -3.414262,1.38803 c -1.858767,0.77555 -4.514925,1.51001 -5.842537,1.67328 -1.517423,0.16328 -3.072986,0.61247 -4.135148,1.26556 l -1.745114,1.06143 -0.03152,-0.0408 c -0.02124,0.0617 -0.04994,0.11872 -0.08475,0.17673 -0.0084,0.0947 -0.08517,0.17103 -0.130741,0.25477 -0.0025,0.004 -0.0048,0.007 -0.0072,0.0109 -0.009,0.0323 -0.01569,0.0559 -0.03152,0.1142 -0.01704,0.0318 -0.03412,0.0638 -0.05116,0.0956 -0.03373,0.063 -0.06556,0.11116 -0.09509,0.14727 -0.03365,0.14176 -0.08944,0.2895 -0.175183,0.46561 -0.493086,0.93881 -0.455099,0.93886 0.265617,0.28577 0.682803,-0.69378 0.797136,-0.61196 3.073198,1.8371 1.004958,1.08141 1.853731,2.07019 2.187463,2.53938 0.0038,-1.4e-4 0.0059,-3.6e-4 0.0098,-5.2e-4 0.0051,0.0149 0.01044,0.0297 0.01602,0.0444 0.06801,0.10017 0.138493,0.20272 0.138493,0.23306 0,0.016 -0.01182,0.0312 -0.03256,0.0455 0.0093,0.0317 0.01684,0.0638 0.0217,0.0966 0.0063,0.0423 -0.222726,0.19409 -0.259416,0.21859 -0.159772,0.0926 -0.324505,0.17572 -0.484208,0.26872 -0.03675,0.0218 -0.07649,0.038 -0.113688,0.0589 0.0027,0.002 0.0043,0.003 0.0052,0.004 -0.0014,-6.1e-4 -0.004,-0.002 -0.0072,-0.003 -0.0419,0.0236 -0.08577,0.0434 -0.128158,0.0661 -0.143642,0.13125 -0.302099,0.24514 -0.457336,0.36225 -0.214177,0.15691 -0.438835,0.29894 -0.665592,0.43667 -0.167661,0.10529 -0.33787,0.20632 -0.506429,0.31006 -0.125957,0.0681 -0.250394,0.13792 -0.375688,0.20722 -0.06501,0.0482 -0.145093,0.0748 -0.207223,0.12609 -0.0044,0.004 -0.0291,0.0196 -0.05684,0.0372 -0.192542,0.15367 -0.323319,0.26711 -0.556038,0.44752 -0.02382,0.0228 -0.05021,0.042 -0.07803,0.0589 -2.139911,1.6555 -5.95131,4.43173 -12.563574,9.21804 -8.724788,6.2441 -15.933787,11.55127 -16.047599,11.79618 -0.151753,0.2041 -1.65e-4,0.24724 0.303341,0.0408 1.100007,-0.73395 32.399401,-23.18415 32.702913,-23.46988 0.189685,-0.16327 -0.797,-1.47017 -2.162659,-2.89802 -1.365553,-1.42863 -2.503723,-2.85722 -2.503723,-3.10213 0,-0.28572 0.645073,-0.85738 1.441773,-1.30638 1.934623,-1.06126 5.045616,-1.06126 7.018176,0 0.796606,0.449 1.366148,0.61233 1.214396,0.36742 -0.151761,-0.28572 -0.797036,-0.73489 -1.404049,-0.97979 -1.100071,-0.53064 -1.099643,-0.53043 2.428276,-1.95905 l 3.52795,-1.42886 0.607198,3.34709 c 0.379382,1.87737 0.910685,4.40897 1.25212,5.67355 0.606898,2.20404 0.530662,5.63366 -0.114205,6.65334 -0.379371,0.61226 -5.918048,2.61273 -6.562907,2.36782 -0.303475,-0.12246 -0.797016,0.041 -1.062467,0.40824 -0.531144,0.65309 -1.706848,0.85646 -1.327568,0.20361 0.151749,-0.28572 -0.379918,-0.3669 -1.480013,-0.32608 -1.138031,0.0817 -1.707,0.2853 -1.593184,0.61185 0.11384,0.24491 -0.682961,1.22488 -1.745113,2.16369 -1.024221,0.97963 -2.086652,2.28574 -2.276347,2.93884 -0.303505,0.85717 -2.428738,2.89831 -7.473963,7.10241 -11.076714,9.22367 -15.061583,12.12283 -17.299719,12.44937 -2.541526,0.40793 -3.186719,-0.32669 -2.921269,-3.26544 0.303512,-3.67259 -1.859543,-7.02097 -5.463232,-8.32714 -1.706995,-0.65309 -2.655404,-2.1226 -2.314071,-3.63285 0.303505,-1.18372 5.843227,-5.26615 14.492139,-10.61227 9.483558,-5.87763 11.305693,-6.81661 12.709302,-6.65334 0.720706,0.12246 1.403916,0.0409 1.517737,-0.1633 0.113714,-0.2041 1.100276,-0.85741 2.200382,-1.42886 1.138029,-0.61227 1.972613,-1.22421 1.858801,-1.30586 -0.11379,-0.12244 -1.251661,0.36703 -2.541447,1.06092 -1.28968,0.69391 -2.618062,1.18387 -2.959509,1.06143 -0.682775,-0.24491 -4.021629,0.69406 -3.718119,1.02061 0.113816,0.12245 -2.048636,1.55109 -4.817794,3.22461 -6.41087,3.79592 -11.761406,7.26577 -15.706535,10.04125 -3.527808,2.57152 -4.287152,3.87761 -3.338814,5.9185 0.568962,1.18358 0.569163,1.18339 -0.492993,1.18339 -0.569077,0 -1.707436,0.36749 -2.541964,0.81649 -0.303807,0.16786 -0.610506,0.28771 -0.986503,0.39377 -0.017,0.0248 -0.06105,0.0917 -0.06718,0.10025 -0.191438,0.25941 -0.403962,0.50121 -0.592212,0.76275 -0.188265,0.27926 -0.400938,0.54051 -0.617017,0.7984 -0.106234,0.14732 -0.248069,0.2875 -0.347265,0.45269 l -5.17e-4,5.1e-4 c -2.177215,3.15571 -1.777291,8.15345 0.979268,10.79779 1.062161,1.06126 3.073246,2.20452 3.907772,2.20452 0.834532,0 0.720616,0.53145 -0.531234,2.69389 -0.644838,1.06125 -1.02426,2.16324 -0.910538,2.5306 0.303482,0.93882 11.874826,19.38856 12.405961,19.79672 0.227516,0.16327 0.986372,0.24495 1.669148,0.1633 0.872467,-0.0816 1.366162,0.0818 1.593702,0.53072 0.265546,0.53039 -0.03817,0.85693 -1.328085,1.63245 -0.948344,0.53064 -1.744984,1.18395 -1.858801,1.46968 -0.07588,0.2449 1.138433,2.93997 2.731616,6.00015 2.23813,4.28587 3.110802,5.59191 3.679879,5.59191 0.417209,0 3.149521,-1.46943 6.07043,-3.22461 7.738622,-4.69314 8.535913,-5.26541 8.535913,-5.9185 0,-0.85717 -5.387264,-11.22467 -5.956225,-11.42876 -0.265572,-0.12246 -1.252039,0.28534 -2.200383,0.85679 -2.200084,1.30528 -2.958939,0.81644 -1.669148,-1.06091 l 0.834574,-1.22474 -1.441772,-4.20439 c -4.438753,-13.0595 -6.487731,-18.28622 -7.094658,-18.28622 -0.606897,0 -0.265659,-0.6941 0.568958,-1.10226 0.455144,-0.24491 3.301322,-2.36719 6.336047,-4.77542 l 5.500956,-4.32687 0.347266,0.002 c 0.01841,-0.0194 0.04239,-0.0437 0.05581,-0.0579 0.115392,-0.17628 0.280351,-0.40748 0.366903,-0.43408 0.100581,-0.0886 0.202232,-0.17623 0.304891,-0.26252 -0.08973,-0.0996 -0.05611,-0.21972 0.13901,-0.38964 0.455153,-0.36736 2.504344,-2.12354 4.628658,-3.91862 2.27596,-1.91843 3.945454,-3.63313 4.135148,-4.32687 0.227634,-0.57145 1.290266,-1.91839 2.428275,-2.97966 1.820837,-1.63182 2.238611,-1.87736 3.376538,-1.67328 0.94837,0.16328 2.352069,-0.20448 5.273064,-1.42886 2.200088,-0.89799 4.097507,-1.63246 4.287076,-1.63246 0.151751,-0.0409 0.189432,0.36752 0.07596,0.85732 -1.024214,5.18362 -1.821079,8.49011 -2.845305,11.837 l -1.126546,3.83077 c 0.04655,0.2082 0.09157,0.41663 0.130225,0.62632 h 0.626318 0.482141 0.28267 0.15658 0.121956 0.13901 0.144694 0.03514 c 0.516213,-0.0297 1.123047,-0.0486 1.891357,-0.0486 1.102059,0 1.834008,0.0136 2.353862,0.0486 h 1.523938 0.826823 c 0.09965,-0.0767 0.191168,-0.13057 0.253731,-0.11317 0.04095,0.0116 0.06657,0.0558 0.08527,0.11317 h 0.526066 0.242879 l 0.02997,-0.0491 h 0.216524 c 0.166214,-0.32412 0.387937,-0.62 0.635103,-0.89659 0.09856,-0.14992 0.305448,-0.29104 0.550354,-0.39739 l 0.115239,-0.13436 c 1.95598,-2.24489 5.687919,-3.56383 9.382379,-3.58531 1.67905,-0.01 3.35173,0.24824 4.84466,0.80925 1.02874,0.36894 3.62205,2.03073 4.8426,2.98742 0.20531,0.10754 0.41666,0.26473 0.62528,0.47852 0.24144,0.24742 0.4655,0.51011 0.67076,0.78755 h 0.52142 0.094 c 0.0461,-0.0292 0.10436,-0.0491 0.18862,-0.0491 0.0285,0 0.0634,0.0197 0.10129,0.0491 h 1.5446 0.74311 c 0.56215,-0.0381 1.37369,-0.0491 2.58124,-0.0491 1.10355,0 1.92572,0.0189 2.52181,0.0646 0.0704,-0.0112 0.14659,-0.0181 0.22893,-0.0181 h 0.93999 c 0.0813,-0.002 0.16226,0.007 0.2434,0.0108 0.0285,-0.15595 0.0602,-0.31141 0.0946,-0.46612 h -0.0837 l -1.36581,-4.81676 c -1.74516,-6.04104 -2.92117,-11.91865 -2.39003,-11.91865 0.0759,0 2.16287,0.73447 4.59093,1.67328 2.61774,0.97962 4.77986,1.55131 5.27306,1.42885 0.64404,-0.16327 1.36588,0.28551 2.99724,1.83658 1.17583,1.1429 2.16265,2.32653 2.16265,2.65307 0,0.77554 1.2149,2.00056 5.8043,5.75572 1.81225,1.50833 3.03169,2.59617 3.31711,2.90628 0.0938,0.0233 0.18988,0.056 0.28836,0.10129 0.26538,0.18957 0.48775,0.36377 0.66766,0.63872 0.0323,0.0482 0.0602,0.0987 0.0899,0.14831 l 0.11421,-5.1e-4 4.439,3.63285 c 2.42749,1.95909 5.1594,4.12283 6.06992,4.73511 0.8726,0.61226 1.5937,1.1834 1.5937,1.22422 0,0.0816 -0.49347,1.2662 -1.13843,2.6944 -1.13815,2.65307 -3.52851,9.18437 -5.95623,16.368 l -1.32757,3.95893 0.83458,1.26555 c 1.28991,1.91844 0.49302,2.40835 -1.70739,1.10226 -0.94847,-0.57144 -1.93482,-0.97977 -2.20038,-0.85731 -0.68289,0.24489 -6.03201,10.73487 -5.88027,11.55123 0.15175,0.77553 13.39202,9.02064 14.56811,9.02064 0.60699,0 1.40359,-1.18456 3.67988,-5.55108 1.55522,-3.06125 2.76976,-5.79609 2.69389,-6.04098 -0.0759,-0.24492 -0.94857,-0.97935 -1.89704,-1.59163 -1.93484,-1.26535 -1.89674,-1.91875 0.15193,-1.91875 0.7585,0 1.59344,-0.16331 1.82107,-0.32659 0.26559,-0.16328 2.04866,-2.85778 4.02146,-6.00015 1.97223,-3.14294 4.70478,-7.51134 6.14588,-9.71465 2.76916,-4.3673 2.80695,-4.69415 1.13792,-7.06159 -1.06228,-1.46935 -1.13777,-2.204 -0.34107,-2.204 0.87258,0 2.88323,-1.18359 4.09691,-2.40812 2.42807,-2.40817 2.99726,-7.14323 1.25212,-9.9596 l -0.94826,-1.46968 0.25373,-0.0517 c -0.27198,-0.28435 -0.52129,-0.58868 -0.76843,-0.894 -0.11798,-0.0918 -0.23582,-0.18385 -0.35192,-0.27802 -0.0277,-0.0177 -0.055,-0.037 -0.0822,-0.0558 -0.43534,-0.10137 -0.80581,-0.21873 -1.06195,-0.39326 -0.68288,-0.44899 -1.63152,-0.81701 -2.0867,-0.81701 -1.02433,0 -1.40375,-0.57134 -0.91054,-1.50998 0.18969,-0.40815 0.26574,-1.26567 0.15193,-1.87792 -0.30352,-1.755 -5.08498,-5.14304 -19.46238,-13.83689 -5.65175,-3.42771 -7.62595,-4.40847 -8.34677,-4.24521 -0.45649,0.0702 -1.01051,0.0139 -1.35393,-0.13126 h -5.1e-4 c -0.22339,0.011 -0.48553,-0.12744 -0.6873,-0.48214 l -0.003,-0.006 c 0.006,0.006 0.0148,0.0108 0.0238,0.0155 -0.0662,-0.0793 -0.12569,-0.15438 -0.13229,-0.13539 0.01,0.007 0.018,0.0128 0.0341,0.0248 0.015,0.0111 -0.0462,-0.0474 -0.0522,-0.0434 -0.002,-0.006 0.0123,0.0135 0.0155,0.0155 -0.004,-0.003 -0.01,-0.008 -0.0124,-0.0103 l -5.1e-4,-0.001 c -0.0322,-0.0252 -0.0358,-0.0321 -0.10801,-0.10232 0.0995,0.0514 0.0395,0.0202 -0.0243,-0.0155 -0.30208,0.0293 -0.8599,-0.16124 -1.56632,-0.55655 -2.466,-1.34699 -2.04856,-0.61157 0.45527,0.817 1.55547,0.89799 2.61761,1.26518 3.22461,1.10226 0.64497,-0.16326 2.50422,0.73468 7.28431,3.59151 13.04955,7.79546 19.7279,12.49037 20.1073,14.08183 0.34144,1.55101 -0.6077,2.93933 -2.50372,3.63286 -3.33846,1.18367 -5.80463,5.34773 -5.19762,8.7762 0.1896,1.02044 0.0757,1.63313 -0.41754,2.24534 -0.60703,0.69392 -0.94844,0.77508 -2.57969,0.5302 -2.54186,-0.36732 -6.29978,-3.18559 -20.75222,-15.38872 -2.23824,-1.87755 -3.83175,-3.5503 -4.02146,-4.24419 -0.22763,-0.61222 -1.25202,-1.87759 -2.27635,-2.85719 -1.06227,-0.93862 -1.85894,-1.9188 -1.74511,-2.16369 0.11383,-0.32655 -0.45612,-0.53124 -1.55546,-0.61288 -1.40371,-0.0817 -1.63148,0.041 -1.44178,0.57154 0.49319,1.42857 -3.71797,-2.57141 -4.47672,-4.2447 -2.46509,-5.46906 0.91178,-11.51093 6.44973,-11.51093 2.4659,0 3.71755,0.53095 5.46272,2.3673 0.75786,0.81631 1.40404,1.30634 1.40404,1.06144 0,-0.20389 -0.18969,-0.61241 -0.45526,-0.89814 -0.0364,-0.0392 -0.0423,-0.10609 -0.0217,-0.19534 -0.0402,-0.032 -0.0784,-0.0659 -0.11524,-0.10387 -0.0975,-0.0882 -0.20047,-0.17177 -0.27957,-0.27802 -0.0207,-0.0336 -0.0631,-0.0678 -0.0739,-0.10077 -0.0756,-0.0507 -0.15237,-0.0993 -0.22996,-0.14676 -0.1515,-0.0926 -0.26478,-0.1947 -0.34469,-0.29869 l -0.6444,-0.50901 c -0.64494,-0.48981 -2.04864,-1.1018 -3.11092,-1.34669 -0.41902,-0.0933 -0.73942,-0.20499 -1.01183,-0.31936 -0.0536,-5.4e-4 -0.1071,2.8e-4 -0.16071,-0.002 -0.0687,-0.002 -0.13769,-0.004 -0.20619,-0.0119 -0.11124,-0.0106 -0.22173,-0.0279 -0.33073,-0.0527 -0.0974,-0.0239 -0.19435,-0.0546 -0.29455,-0.0496 h -0.5886 v 0.002 c -0.27278,0 -0.47995,-0.0653 -0.62167,-0.16588 -0.6679,-0.0978 -1.70663,-0.45535 -3.57704,-1.19786 l -3.83181,-1.55081 -0.11368,-4.32635 -0.11421,-4.32687 0.007,-0.015 c -0.0103,-0.10909 -0.0197,-0.2183 -0.0279,-0.32763 -0.004,-0.0568 -0.007,-0.11371 -0.0103,-0.17053 -0.009,-0.0783 -0.0173,-0.15622 -0.0258,-0.23461 -0.0307,-0.30957 -0.0601,-0.61934 -0.0749,-0.93018 -0.003,-0.0605 -0.005,-0.12087 -0.008,-0.18138 -0.01,-0.0636 -0.0207,-0.12707 -0.0305,-0.19069 -0.0362,-0.12977 -0.0713,-0.25979 -0.10335,-0.39067 -0.0121,-0.0552 -0.0234,-0.11075 -0.0341,-0.1664 -0.14712,-0.64708 -0.25621,-1.88836 -0.44959,-3.84369 -0.26559,-2.69383 -0.41756,-2.77569 -4.09742,-3.55121 -0.93612,-0.20983 -1.48361,-0.36803 -1.77354,-0.54311 -0.0501,-0.0154 -0.10015,-0.0307 -0.15037,-0.046 -0.17351,-0.0529 -0.34726,-0.1055 -0.52194,-0.15451 -0.0359,-0.006 -0.0717,-0.0127 -0.10748,-0.0186 -0.0758,-0.0117 -0.15148,-0.0227 -0.22738,-0.0336 -0.0293,-0.003 -0.0593,-0.006 -0.0884,-0.009 -0.13406,0.18818 -0.25345,0.31123 -0.31884,0.23306 -0.0409,-0.033 -0.0364,-0.1357 -0.0129,-0.2682 -0.0863,-0.009 -0.17222,-0.0216 -0.25838,-0.032 -0.0143,-10e-4 -0.0286,-0.003 -0.0429,-0.004 -0.0623,-0.007 -0.12447,-0.0116 -0.18707,-0.0155 -0.0361,-0.002 -0.0724,-0.004 -0.10852,-0.005 -0.001,-4e-5 -0.003,4e-5 -0.004,0 -0.004,-1.3e-4 -0.008,-4.1e-4 -0.0124,-5.2e-4 -0.003,-1.3e-4 -0.009,0.002 -0.009,-5.2e-4 1e-5,-5.2e-4 0,-5e-4 0,-0.002 h -0.19689 -0.30127 -0.32763 -0.12299 c -0.63818,0.1222 -1.53167,-0.083 -3.08095,-0.52865 -1.32774,-0.38766 -3.29074,-0.58132 -5.29167,-0.58136 z m -0.0925,0.45166 c 1.74991,0 3.48587,0.19359 5.07928,0.58136 4.13503,1.02044 4.09742,0.94019 4.09742,9.34775 v 7.10189 l -1.44177,1.55133 c -1.21403,1.26511 -1.51748,1.95934 -1.74511,3.7145 -0.15175,1.1429 -0.37926,2.12235 -0.56896,2.12235 -0.8726,0 -1.10037,-1.63352 -1.25212,-8.97982 -0.18969,-7.18368 -0.26556,-8.20474 -1.10019,-10.32701 -1.74516,-4.53077 -4.2493,-4.77487 -6.22184,-0.53072 -1.10022,2.40824 -1.10036,2.49126 -1.25212,10.98021 l -0.18914,8.51369 c -0.0791,10e-4 -0.253672,0.054 -0.53175,0.13953 -0.796696,0.24491 -0.872298,0.12274 -0.872298,-1.42834 0,-2.0817 -0.759181,-3.71462 -2.048971,-4.49017 l -0.986503,-0.53071 v -7.87756 c 0,-9.01958 -0.302729,-8.3273 3.870048,-9.30692 1.650324,-0.38777 3.415014,-0.58136 5.164024,-0.58136 z m 9.36636,1.52032 2.08617,0.28577 c 1.13726,0.16327 2.76978,0.48993 3.60443,0.73484 l 1.51774,0.48989 0.68265,5.46943 c 0.64496,5.38705 0.60716,10.00024 -0.11369,12.04113 -0.26556,0.77554 -0.79692,1.02067 -3.11092,1.42885 -3.2627,0.61226 -5.23678,1.59213 -6.1464,3.06131 -1.06227,1.71345 -1.74507,0.69408 -1.47949,-2.16317 0.15175,-2.08171 0.34274,-2.49089 1.66966,-3.83698 l 1.51722,-1.5105 -0.11369,-8.00003 z m -18.855701,0.0408 c 0.151725,0 0.22781,3.67477 0.151928,8.12302 l -0.113688,8.16333 0.985986,0.69401 c 1.327732,0.93881 1.783393,1.9998 2.048971,4.7346 l 0.227376,2.32699 0.94878,-0.81649 c 0.533448,-0.47828 0.745678,-0.67157 0.676958,-0.70435 l 0.8785,-0.27544 c 0.56819,-0.16328 0.34126,0.12257 -0.6072,0.73484 -0.834702,0.57145 -1.669418,1.06144 -1.897038,1.10226 -0.189692,0.0408 -0.568703,0.24496 -0.796334,0.40824 -0.227515,0.24491 -0.606919,-0.0409 -1.024226,-0.81648 -0.834553,-1.46944 -3.187684,-2.69399 -6.412012,-3.26544 -1.517413,-0.28573 -2.617927,-0.73489 -2.731616,-1.06143 -0.986394,-2.81643 -0.303078,-16.40852 0.948779,-17.75551 0.493083,-0.52973 4.969884,-1.59215 6.714836,-1.59215 z m 9.319331,0.66921 c 0.10262,-0.008 0.20351,-0.007 0.30282,0.002 0.66207,0.063 1.25195,0.51225 1.79731,1.3286 v 5.2e-4 c 1.21403,1.87737 1.55546,4.65338 1.55546,12.24524 v 7.34684 l -1.21388,-0.28525 c -1.59342,-0.36736 -3.18684,-0.36671 -4.932,0.0403 l -1.44177,0.32659 v -5.63273 c 0.038,-9.46858 0.91083,-14.00035 2.95951,-15.06161 0.34144,-0.18368 0.66469,-0.28652 0.97255,-0.31058 z m 18.77559,18.57923 c 0.0628,0.008 0.13135,0.0278 0.20723,0.0584 0.22764,0.0816 1.7452,0.69413 3.37654,1.34721 1.59316,0.65309 2.92126,1.26506 2.92126,1.38751 -0.0379,0.12246 -0.75883,0.57162 -1.63142,1.06143 -2.39011,1.26536 -3.86953,4.04111 -3.86953,7.30654 0,2.1631 0.18984,2.85787 1.25212,4.65294 1.36578,2.40826 1.59184,2.32585 -2.39055,0.85731 -1.82103,-0.65307 -1.93477,-0.77545 -2.39004,-2.69389 -0.41732,-1.79599 -0.37939,-2.36846 0.45527,-5.67355 0.53112,-2.04089 1.06213,-4.61283 1.21388,-5.7149 0.26557,-2.07149 0.41539,-2.64256 0.85524,-2.58899 z m -35.49292,1.16065 c 0.03795,0 1.404361,0.28583 3.035474,0.61237 3.186484,0.65309 4.70415,1.55197 5.53868,3.18378 0.417333,0.89799 0.41737,1.30615 -0.113688,2.97967 -0.796594,2.57128 -0.758561,4.85715 0.151929,7.06106 0.417206,0.97873 0.75861,1.8371 0.75861,1.91875 0,0.40817 -3.111207,-1.55101 -4.363041,-2.73472 -1.555267,-1.46855 -3.224694,-5.06251 -4.324801,-9.38805 -0.75865,-2.97969 -0.91068,-3.63286 -0.683163,-3.63286 z m 33.14423,0.0816 c 0.46,-0.0102 0.50746,0.14245 0.50746,0.44855 0,1.06127 -1.59342,6.65366 -2.466,8.65374 -0.53114,1.18371 -1.55579,2.77569 -2.31458,3.63285 -1.25195,1.38781 -4.21073,3.34703 -4.55218,2.97966 -0.0759,-0.0817 0.18967,-1.02078 0.64492,-2.08204 0.87258,-2.12252 0.83903,-4.73549 -0.076,-7.87756 -0.45526,-1.63247 -0.45524,-1.79592 0.45527,-2.81636 1.25198,-1.46945 1.89706,-1.75555 4.81831,-2.40864 1.65031,-0.34695 2.52277,-0.51998 2.98276,-0.5302 z m -18.03559,1.18029 v 5.2e-4 c 0.23297,0.023 0.33241,0.1149 0.21859,0.2067 -0.11385,0.12246 -0.45532,0.16583 -0.72089,0.0408 -0.30352,-0.12245 -0.18942,-0.24495 0.2279,-0.24495 0.10433,-0.0102 0.19675,-0.0216 0.2744,-0.003 z m 3.36775,0.0439 c 0.53114,0 0.72038,0.0816 0.493,0.20412 -0.26557,0.0816 -0.72065,0.0816 -0.94827,0 -0.26558,-0.12245 -0.0759,-0.20412 0.45527,-0.20412 z m 1.36581,0.32659 c 0.22764,0 1.13783,0.57165 1.97249,1.22473 0.87257,0.69391 1.5937,1.34671 1.5937,1.50999 0,0.12244 -0.30348,-0.0409 -0.64492,-0.36742 -0.37938,-0.36737 -1.2899,-1.02018 -2.01073,-1.50999 -0.72083,-0.44809 -1.13816,-0.85731 -0.91054,-0.85731 z m -3.14916,0.4594 c 1.09073,0 2.20142,0.17344 2.99723,0.52039 2.7695,1.26509 4.59042,4.16357 4.59042,7.38818 0,3.06018 -1.44181,5.7957 -3.71812,7.06106 -5.27253,2.93798 -11.191663,-0.65406 -11.26753,-6.81664 0,-3.3468 1.745034,-6.32669 4.51445,-7.6326 0.72084,-0.34695 1.79282,-0.52039 2.88355,-0.52039 z m -16.662034,1.24696 c 0.02609,-0.007 0.05472,0.008 0.0832,0.0491 0.113839,0.12246 0.151992,0.48942 0.03772,0.77515 -0.113839,0.32653 -0.227376,0.20405 -0.227376,-0.24495 -0.02846,-0.33674 0.02819,-0.55824 0.106453,-0.57929 z m 50.280654,0.663 c 0.005,0.008 0.01,0.0154 0.015,0.0227 -4.3e-4,-0.002 -4.5e-4,-0.005 -5.1e-4,-0.007 -0.005,-0.005 -0.009,-0.0102 -0.0145,-0.0155 z m -16.69821,0.28371 c 0.0759,0.0816 -0.34147,1.79631 -0.91054,3.75532 -1.36553,4.73396 -2.50389,7.06134 -4.21111,8.69405 -2.04778,1.91842 -4.174,2.8577 -6.60115,2.81688 -1.97254,0 -2.04891,-0.041 -1.32808,-0.61237 0.41732,-0.32654 0.7211,-0.7757 0.68316,-0.93896 -0.038,-0.20409 0.56882,-0.93856 1.32757,-1.7141 l 1.40405,-1.38803 -1.28985,1.50998 c -0.72058,0.85629 -1.13817,1.55133 -0.91053,1.55133 0.22762,0 0.60672,-0.28581 0.87229,-0.57154 0.22762,-0.32654 1.0632,-0.81601 1.82108,-1.10174 3.7559,-1.30618 6.41167,-4.32825 7.92923,-8.98033 0.56906,-1.75516 1.10007,-3.10214 1.21388,-3.02049 z m -23.294183,0.20412 c 0.07578,0 -0.151547,0.53083 -0.492993,1.18391 -0.341455,0.65309 -0.683026,1.14306 -0.796851,1.06143 -0.151638,-0.20409 1.024266,-2.24534 1.289844,-2.24534 z m -9.987504,0.4191 c 0.133377,-0.067 0.474877,0.74417 1.072286,2.51974 1.593215,4.73462 3.794274,7.34754 7.132381,8.53126 0.758687,0.28573 1.821265,0.81604 2.352312,1.26504 0.531102,0.40818 1.365388,1.14315 1.896528,1.55133 l 0.94878,0.77566 -1.897046,0.0408 c -3.527897,0 -7.24663,-2.65317 -9.105387,-6.49004 -0.493197,-1.06127 -0.91034,-1.63293 -0.948263,-1.3472 0,0.28571 0.189608,0.89821 0.379305,1.30638 0.303501,0.61226 0.227607,0.85684 -0.379305,1.22421 -0.644845,0.36735 -0.75861,0.32649 -0.75861,-0.36742 0,-0.449 0.189608,-1.30595 0.379305,-1.8774 0.303501,-0.85716 0.189684,-1.71444 -0.379305,-3.75533 -0.417291,-1.46945 -0.759127,-2.81642 -0.759127,-3.02049 0,-0.2143 0.02169,-0.33424 0.06615,-0.35656 z m 8.425326,2.51147 c 0.02608,-0.007 0.05423,0.008 0.08268,0.0491 0.113835,0.12244 0.152064,0.48994 0.03824,0.77567 -0.113748,0.32653 -0.227894,0.20405 -0.227894,-0.24495 -0.02846,-0.33673 0.02872,-0.55876 0.106971,-0.57981 z m 16.378331,1.64176 c 0.0178,0.0147 0.0368,0.0812 0.0558,0.20361 0.0758,0.53062 0.0758,1.34678 0,1.83658 -0.0759,0.53064 -0.15193,0.12232 -0.15193,-0.89814 0,-0.76533 0.0428,-1.18606 0.0961,-1.14205 z m -16.714745,0.11731 c 0.02312,-0.003 0.04903,0.0251 0.07751,0.0863 0.07589,0.28573 0.07589,0.85686 0,1.22421 -0.113838,0.40818 -0.189653,0.16346 -0.189653,-0.48937 0,-0.52043 0.04277,-0.81158 0.112138,-0.82114 z m 23.902935,2.45359 0.1142,1.14309 c 0.0759,0.6531 0.0378,1.26507 -0.076,1.42833 -0.15175,0.12247 -0.41729,0.0408 -0.64492,-0.20412 -0.30352,-0.32655 -0.26571,-0.73442 0.11369,-1.38751 z m -23.645586,0.2217 c 0.100546,0.0454 0.343526,0.61063 0.65474,1.61488 h 5.17e-4 c 0.22763,0.77555 0.264884,1.2247 0.07545,1.02061 -0.189567,-0.2449 -0.49329,-0.97961 -0.644921,-1.63245 -0.128043,-0.59697 -0.159903,-0.91838 -0.11989,-0.99013 0.0083,-0.0149 0.01974,-0.0194 0.03411,-0.0129 z m 15.689486,1.78645 c 0.0391,-0.008 0.0744,0.002 0.10283,0.0326 0.11384,0.12246 -6e-5,0.44937 -0.26562,0.73483 -0.37939,0.36736 -0.41638,0.32652 -0.18965,-0.24494 0.0854,-0.30613 0.23507,-0.49758 0.35244,-0.52245 z m -22.049305,1.00614 c 0.589466,0.0459 1.267428,0.79255 2.120801,2.16989 0.720577,1.18261 1.365928,2.28571 1.441772,2.44895 0.07578,0.16327 -0.531501,0.3266 -1.328084,0.40824 l -1.441772,0.12196 -0.341065,2.36781 c -0.455149,3.38698 -0.264972,3.55121 4.856035,3.55121 l 4.211112,0.0408 -2.200382,1.26504 c -1.175886,0.6939 -2.959439,2.16336 -3.907772,3.26544 l -1.70739,2.00039 -3.755843,-0.12247 -3.717602,-0.12248 1.06195,-3.30625 c 0.569079,-1.79598 1.517616,-5.47078 2.086695,-8.16385 0.90092,-4.13256 1.639117,-6.00123 2.621545,-5.9247 z m 29.221985,0.077 c 0.28572,-0.0121 0.56535,0.0925 0.85938,0.29662 0.26556,0.16327 0.8346,2.12361 1.28985,4.36769 0.41733,2.24498 1.36585,6.00002 2.08669,8.32663 0.72082,2.32636 1.28985,4.28607 1.28985,4.36769 0,0.0817 -1.783,0.1633 -3.9455,0.1633 h -3.90777 l -1.02423,-1.55133 c -1.02433,-1.63271 -2.54265,-3.0207 -4.59042,-4.24522 -1.13814,-0.6939 -1.13747,-0.6935 2.69338,-0.73432 2.42807,0 3.94673,-0.16335 4.24935,-0.48989 0.56907,-0.61227 0.60366,-3.75551 0.076,-4.85759 -0.3035,-0.53063 -0.79686,-0.77515 -1.70739,-0.77515 h -1.32809 l 0.68317,-1.14308 c 1.50779,-2.60124 2.41859,-3.689 3.27576,-3.72535 z m -20.87159,1.3193 c 0.03245,0.005 0.167937,0.11023 0.409794,0.32453 0.606908,0.61201 1.479196,1.26508 1.896526,1.50998 0.41731,0.24491 0.53119,0.48989 0.26562,0.48989 -0.26556,0 -1.13776,-0.69414 -1.896529,-1.55132 -0.497947,-0.51022 -0.729502,-0.78105 -0.675411,-0.77308 z m 9.89397,1.91616 c 0.22762,0 0.11389,0.20414 -0.18965,0.40824 -0.3035,0.20409 -0.72065,0.40825 -0.94827,0.40825 -0.18969,0 -0.11387,-0.20416 0.18966,-0.40825 0.30351,-0.2041 0.75857,-0.40824 0.94826,-0.40824 z m -14.8146,0.0512 c 0.170723,0 0.64503,0.2551 1.422652,0.76533 1.024216,0.65308 1.100193,0.81648 0.45527,0.81648 -0.417238,0 -1.100103,-0.3675 -1.479497,-0.81648 -0.436175,-0.51023 -0.569148,-0.76533 -0.398425,-0.76533 z m 21.58215,0.38757 c 0.20366,0 0.17535,0.19412 -0.12816,0.58188 -0.26555,0.32655 -0.8346,0.61236 -1.28985,0.61236 -0.75877,-0.0409 -0.75859,-0.0818 0.15193,-0.61236 0.62509,-0.38776 1.06216,-0.58188 1.26608,-0.58188 z m -10.56112,0.50023 c 1.06137,0 1.51773,0.0816 1.06247,0.1633 -0.4932,0.0817 -1.32795,0.0817 -1.89704,0 -0.60701,-0.0817 -0.18976,-0.1633 0.83457,-0.1633 z m 0,0.48989 c 2.2754,0 2.84531,0.12255 2.84531,0.61237 0,0.53063 0.75895,0.61185 4.62866,0.61185 4.13414,0 4.66627,0.0818 4.78007,0.69401 0.11385,0.69391 -0.68394,0.73484 -12.44369,0.73484 -11.759225,0 -12.5575,-0.041 -12.443685,-0.73484 0.11384,-0.61226 0.645194,-0.69401 4.969723,-0.69401 4.021432,0 4.818312,-0.0813 4.818312,-0.61185 0,-0.48982 0.56924,-0.61237 2.8453,-0.61237 z m 13.05089,1.0201 c 0.45527,0 0.64466,1.55108 0.41702,3.26543 l -0.18965,1.42885 H 104.6989 91.420643 l -0.03824,-2.44894 c -0.03795,-1.34698 -1.52e-4,-1.95947 0.113688,-1.34721 l 0.151929,1.14308 h 12.89895 12.86123 V 156.195 c 0,-0.5712 0.15192,-1.0206 0.34159,-1.0206 z m -12.44369,5.34747 c 3.33858,-0.0409 3.83168,0.0813 5.95623,1.22422 2.31399,1.22453 5.84261,4.89844 5.00796,5.18418 -0.22763,0.0816 -1.10064,-0.53085 -1.93528,-1.34721 -5.08285,-4.89697 -13.88661,-4.89477 -19.272728,0.0408 -2.162245,1.99981 -2.692942,1.55097 -0.72037,-0.61237 2.958839,-3.18287 6.033338,-4.44884 10.964188,-4.48965 z m 66.90806,5.27617 c 0.94901,-0.0477 1.9311,0.12445 2.89853,0.56069 1.55458,0.69365 3.56576,2.89825 4.09691,4.44934 1.97279,5.6317 -2.9972,11.63262 -8.34626,10.08155 -0.83465,-0.24492 -1.4795,-0.53021 -1.4795,-0.65267 0,-0.16328 0.75953,-1.71438 1.66915,-3.46956 0.94844,-1.75427 1.55551,-3.22461 1.36581,-3.22461 -0.15174,0 -1.02417,1.38778 -1.8588,3.06132 -0.87259,1.67327 -1.82114,3.06131 -2.0867,3.06131 -0.79646,0 -2.42797,-2.57198 -2.8453,-4.44934 -1.01721,-4.87517 2.47495,-9.21127 6.58616,-9.41803 z m -135.188129,0.0351 c 1.014736,0.0153 2.020569,0.21943 2.722314,0.60719 3.376168,1.83591 4.93187,5.26628 4.02146,8.89817 -0.455143,1.91844 -2.010988,4.32687 -2.80758,4.32687 -0.26557,0 -1.251861,-1.38802 -2.124418,-3.06131 -0.910432,-1.67353 -1.745377,-3.06132 -1.897042,-3.06132 -0.151752,0 0.49364,1.42885 1.404048,3.14296 0.910404,1.75426 1.669149,3.30628 1.669149,3.46956 0,0.16326 -0.682902,0.48942 -1.55546,0.73432 -4.096794,1.18371 -8.687842,-2.65277 -8.687842,-7.26519 0,-2.97879 1.897266,-6.04144 4.476729,-7.2657 0.739683,-0.36737 1.763905,-0.54085 2.778642,-0.52555 z m 25.952938,1.54719 c -0.01002,0.0114 0.0045,-0.005 -0.0124,0.0145 -0.0132,0.0225 -0.0056,0.009 -0.01602,0.0269 h 0.0031 c 0.01172,-0.0185 0.01177,-0.0205 0.02532,-0.0413 z m 96.503151,10.20299 3.26234,0.1633 c 2.95893,0.16328 3.37642,0.28541 4.40076,1.34669 0.607,0.61225 1.10019,1.30643 1.10019,1.5105 0,0.2041 -0.91112,2.08159 -1.97249,4.16305 -1.85898,3.55024 -2.08687,3.83674 -3.14916,3.79616 -0.64495,-0.0409 -1.51744,0.16333 -1.93477,0.40824 -0.8344,0.48981 -4.7041,7.67362 -4.7041,8.77569 0,0.36736 0.26524,1.26569 0.60668,2.04122 0.56909,1.26537 0.56933,1.42856 -0.22738,2.85719 -0.45527,0.81635 -0.94962,1.50998 -1.13843,1.50998 -0.72081,0 -4.17287,-3.3875 -4.17287,-4.12222 0,-0.89798 5.15977,-15.79749 6.86676,-19.87838 z m -109.566437,0.0408 1.138432,2.65307 c 0.644838,1.42837 2.504026,6.45007 4.135148,11.10216 2.162255,6.16322 2.845557,8.69412 2.617928,9.18394 -0.379273,0.77554 -3.680304,3.59202 -4.173388,3.59202 -0.189691,0 -0.682868,-0.73446 -1.100192,-1.67328 -0.75865,-1.50936 -0.758915,-1.71425 -0.227893,-2.61224 0.948344,-1.55109 0.759028,-2.53101 -1.365291,-6.65334 -2.08638,-4.00014 -2.77021,-4.73509 -4.666899,-4.65346 -1.06216,0.0409 -1.290109,-0.24592 -3.110921,-3.79616 -1.100098,-2.08146 -2.01073,-3.95894 -2.01073,-4.12222 0,-0.16326 0.493594,-0.89827 1.138432,-1.59216 1.062159,-1.14265 1.290379,-1.22423 4.363041,-1.30586 z m 119.012887,3.26491 c 0.0759,0 0.8735,0.20417 1.82108,0.44907 0.9105,0.2449 1.66915,0.6124 1.66915,0.81649 0,0.20408 0.53232,1.14273 1.13843,2.08153 0.64494,0.89799 1.13792,1.95964 1.13792,2.32699 0,0.36737 -1.66945,3.26545 -3.71812,6.44922 -2.01073,3.18266 -4.70515,7.4297 -5.95623,9.4697 -2.04868,3.30623 -2.39023,3.67317 -3.4525,3.71399 -1.13814,0 -5.08341,-1.10179 -5.08341,-1.42834 0,-0.12245 0.37932,-1.02077 0.83457,-2.00039 0.72083,-1.67354 0.91065,-1.79574 1.89705,-1.59164 1.63109,0.32652 2.65551,-0.65333 4.78007,-4.73511 2.1243,-3.99926 2.31426,-4.81627 1.3658,-6.57117 -0.60702,-1.10208 -0.6072,-1.1849 1.40354,-5.02089 1.13789,-2.16308 2.08678,-3.95945 2.16265,-3.95945 z m -128.724955,0.0413 c 0.227519,0 1.327749,1.75477 2.503723,3.95893 2.086379,3.99989 2.124878,4.04124 1.404048,4.93923 -1.02422,1.38781 -0.872715,2.32687 1.251604,6.49004 2.048442,4.08088 3.149251,5.22442 4.81831,4.85707 0.948345,-0.2041 1.138391,-0.0406 1.897042,1.46968 0.455168,0.9388 0.834574,1.83661 0.834574,1.99988 0,0.44899 -3.756199,1.55132 -5.083927,1.55132 -1.100097,-0.0409 -1.555925,-0.61248 -7.056417,-9.42888 -3.224415,-5.18271 -5.918071,-9.67388 -5.993949,-9.9596 -0.07588,-0.32654 0.455047,-1.59182 1.137915,-2.81636 1.175975,-2.12251 2.200699,-2.85723 4.287077,-3.06131 z m 6.411495,9.34723 c 0.265456,0 0.720934,0.2853 0.986503,0.61185 0.379268,0.48982 0.341492,0.61236 -0.303341,0.61236 -0.417323,0 -0.834749,-0.28581 -0.986503,-0.61236 -0.113816,-0.36737 -1.65e-4,-0.61185 0.303341,-0.61185 z m 116.16759,0 c 0.30349,0 0.41718,0.24448 0.30334,0.61185 -0.15175,0.32655 -0.56919,0.61236 -0.98651,0.61236 -0.64496,0 -0.68274,-0.12254 -0.30334,-0.61236 0.26555,-0.32655 0.72094,-0.61185 0.98651,-0.61185 z m -114.043172,0.40773 c 0.189604,0 0.948734,1.10248 1.707389,2.49028 1.517331,2.81554 1.631115,3.38785 0.568958,3.02049 -0.417234,-0.16328 -0.75861,-0.0817 -0.75861,0.1633 0,0.2449 -0.1897,0.44855 -0.45527,0.44855 -0.341423,0 -0.341423,-0.12203 0,-0.48938 1.175975,-1.2651 0.07592,-3.55123 -1.745113,-3.63285 -1.024222,0 -1.024397,-7e-5 -0.151929,-0.44907 0.4932,-0.28483 0.796981,-0.69407 0.683163,-1.02061 -0.113817,-0.28573 -0.0383,-0.53071 0.151412,-0.53071 z m 115.119592,0.0357 c 0.13407,0.0326 0.21342,0.39717 0.21342,1.0666 0,0.81635 -0.11406,0.97973 -0.41755,0.65319 -0.26557,-0.28572 -0.34119,-0.77572 -0.22737,-1.10225 0.14227,-0.36736 0.26826,-0.56829 0.37052,-0.61134 0.0213,-0.009 0.0418,-0.0311 0.061,-0.006 z m -3.41478,0.31161 c 0.0339,-0.0122 0.0623,-0.0145 0.0847,0.002 0.0256,0.0159 0.0432,0.0477 0.0527,0.0987 0.038,0.36737 0.49353,0.85902 0.94878,1.10329 0.83464,0.40818 0.83446,0.44907 -0.15193,0.44907 -0.53115,0.0409 -1.28976,0.4078 -1.66915,0.89762 -0.60701,0.69391 -0.64478,1.02077 -0.30334,2.04122 0.22764,0.65283 0.27092,1.18339 0.0754,1.18339 -0.18969,0 -0.34107,-0.20417 -0.34107,-0.44907 0,-0.24492 -0.34182,-0.32606 -0.75913,-0.16278 -1.06202,0.36736 -0.9485,-0.20432 0.64493,-3.14296 0.66806,-1.21879 1.18043,-1.9349 1.418,-2.02055 z m -114.692227,0.1686 c 0.22763,-0.0153 0.483565,0.17833 0.59738,0.58652 0.07588,0.24489 -0.113821,0.53074 -0.45527,0.65319 -0.379266,0.2041 -0.568957,-9.8e-4 -0.568957,-0.57154 0,-0.42858 0.199217,-0.65287 0.426847,-0.66817 z m 0.891935,1.66398 c 0.186728,-0.005 0.151497,0.39693 -0.18035,1.08572 -0.227631,0.449 -0.303986,1.22481 -0.19017,1.63298 0.303508,0.97939 1.555848,1.79569 2.314588,1.46916 0.341334,-0.12245 0.455397,-0.0409 0.341581,0.16329 -0.113816,0.24491 -0.493739,0.40825 -0.835091,0.40825 -0.379388,0 -0.492793,0.245 -0.341065,0.65319 0.531137,1.46944 -0.759304,0.16346 -1.935282,-1.91823 -1.327728,-2.36743 -1.630804,-3.67406 -0.720369,-2.85771 0.379357,0.36735 0.606602,0.32703 0.985986,-0.16278 0.256082,-0.32144 0.44816,-0.471 0.560172,-0.47387 z m 116.062682,0.0501 c 0.1233,-0.0153 0.28443,0.11761 0.56896,0.38293 0.4932,0.48983 0.75874,0.53014 1.10019,0.16278 0.87258,-0.9388 0.49319,0.40893 -0.91054,3.14347 -0.75786,1.46944 -1.51741,2.5714 -1.66915,2.44895 -0.1897,-0.12244 -0.26543,-0.48994 -0.11369,-0.81649 0.11384,-0.36737 -0.0384,-0.61236 -0.37982,-0.61236 -0.34143,0 -0.6825,-0.16332 -0.79633,-0.36742 -0.15175,-0.20408 0.11361,-0.28577 0.49299,-0.1633 1.44075,0.40817 3.07283,-2.57156 1.8588,-3.38791 -0.30352,-0.20409 -0.3414,-0.0815 -0.18965,0.40825 0.37939,1.02044 -0.38031,2.28616 -1.36581,2.28616 -0.83462,-0.0409 -0.83962,-0.041 -0.0754,-0.65319 0.41707,-0.32565 0.7584,-0.81654 0.79633,-1.10226 0,-0.28572 0.15188,-0.81604 0.34158,-1.22421 0.13278,-0.32655 0.21829,-0.49009 0.34158,-0.5054 z m -114.649848,0.22015 c 0.341449,0 0.910484,0.28531 1.213879,0.65267 0.682888,0.73471 0.68281,0.69416 0.379305,1.55133 -0.113791,0.36737 -0.379263,0.53068 -0.568957,0.40824 -0.189689,-0.12245 -0.227501,-0.4083 -0.113688,-0.65319 0.151757,-0.24491 -0.151841,-0.77573 -0.644922,-1.18391 -0.720715,-0.61138 -0.75879,-0.77514 -0.265617,-0.77514 z m 113.094388,0.0408 c 0.15173,-0.0409 0.26562,0.12198 0.26562,0.32608 0,0.20409 -0.26574,0.48991 -0.6072,0.61236 -0.34144,0.12245 -0.53106,0.53078 -0.37931,0.85732 0.11383,0.32653 0.0378,0.69402 -0.15192,0.81648 -0.22763,0.16327 -0.37931,-0.28588 -0.37931,-0.97978 0,-1.06126 0.34158,-1.55082 1.25212,-1.63246 z m -113.88142,0.78548 c 0.189692,0.0204 0.331675,0.21423 0.255798,0.56121 -0.07588,0.32655 0.227714,0.89819 0.644922,1.22473 0.758652,0.61227 0.758112,0.61239 -0.07596,0.65319 -0.872467,0 -1.631379,-1.06158 -1.365808,-1.95957 0.113814,-0.34694 0.35136,-0.49997 0.541052,-0.47956 z m 3.428731,2.91352 c 0.0901,-0.0255 0.184599,0.0763 0.317294,0.30076 0.151728,0.32653 0.228018,0.85737 0.114204,1.14308 -0.151638,0.40818 -0.341628,0.44903 -0.607198,0.1633 -0.18958,-0.20409 -0.265442,-0.73491 -0.113688,-1.14309 0.113816,-0.28573 0.199284,-0.43854 0.289388,-0.46405 z m 107.846129,0.10645 c 0.08,-0.002 0.19719,0.0821 0.36794,0.23513 0.3035,0.24492 0.45541,0.77571 0.34158,1.14308 -0.15175,0.57054 -0.11388,0.57147 0.18965,0.12248 0.22763,-0.32655 0.64515,-0.44904 1.06247,-0.28577 1.02434,0.40817 0.0377,1.22466 -1.13843,0.89813 -0.75877,-0.20409 -0.98651,-0.53084 -0.98651,-1.30638 0,-0.56124 0.0299,-0.80348 0.1633,-0.80667 z m -109.307021,1.05679 c 0.29874,0.0357 0.659414,0.26026 0.792199,0.64802 0.151752,0.44901 0.03774,0.57153 -0.417545,0.48989 -0.341442,-0.0816 -0.683033,-0.36746 -0.796851,-0.65319 -0.113815,-0.36736 0.123522,-0.52044 0.422197,-0.48472 z m 12.211657,4.07675 c 0.22763,0 1.631335,2.40899 3.148645,5.34696 1.517415,2.93889 2.655777,5.46948 2.541964,5.67356 -0.113827,0.20409 -1.176336,0.93905 -2.352311,1.59215 -1.707113,1.02043 -2.238657,1.18383 -2.617928,0.77566 C 61.63858,214.85146 56.707,205.38063 56.707,204.97245 c 0,-0.32654 4.173384,-2.81636 4.742346,-2.85719 z m 86.575074,0 c 0.11385,0 1.17647,0.57113 2.35231,1.26504 1.17607,0.6939 2.20048,1.34721 2.27635,1.42885 0.15176,0.12245 -4.66665,9.75563 -5.34954,10.65362 -0.30352,0.40793 -0.75868,0.32624 -1.93477,-0.36742 -0.87169,-0.44899 -1.97299,-1.14316 -2.42827,-1.55133 l -0.83458,-0.6935 2.27635,-4.44934 c 2.69363,-5.22353 3.30071,-6.28592 3.64215,-6.28592 z m 4.89893,0.86041 c 0.22118,0.002 0.57404,0.25675 1.47484,0.89452 l 1.28985,0.93896 -0.94826,1.8371 c -0.53114,0.97962 -1.36589,2.57156 -1.89705,3.51038 -0.53113,0.9796 -0.79668,1.75493 -0.64492,1.75493 0.15085,0 1.1001,-1.55111 2.12442,-3.42873 l 1.78335,-3.42873 1.51722,0.65319 c 1.44166,0.65308 1.89699,1.38759 1.17616,1.8774 -0.18968,0.12245 -0.72068,-0.12295 -1.21388,-0.5302 l -0.91054,-0.77566 -1.66915,3.10214 c -2.84512,5.42761 -2.54215,5.06107 -3.8318,4.36717 -0.64495,-0.36737 -1.13844,-0.77517 -1.13844,-0.97927 0,-0.20317 0.94854,-2.08186 2.0867,-4.16357 l 2.08669,-3.83697 -0.94878,-0.3266 c -0.94846,-0.36647 -1.17584,-0.73437 -0.68264,-1.22421 0.12804,-0.15306 0.21352,-0.24304 0.34623,-0.24185 z m -96.344507,0.002 c 0.317709,0.0153 0.488493,0.30112 0.507462,0.85214 0,0.12245 -0.417758,0.40828 -0.948779,0.61237 l -0.948263,0.32659 2.086695,3.8778 c 1.138012,2.12164 2.086694,4.0003 2.086694,4.16357 0,0.16327 -0.493594,0.57107 -1.138432,0.93845 l -1.100191,0.61236 -2.200383,-4.04109 -2.200382,-4.04058 -0.910539,0.81597 c -0.83453,0.69391 -0.948402,0.73473 -1.289844,0.12247 -0.189579,-0.36736 -0.26553,-0.69351 -0.189652,-0.77515 0.03796,-0.0409 0.758569,-0.36748 1.51722,-0.77566 l 1.404049,-0.65319 1.55546,2.81637 c 0.834528,1.55083 1.631301,3.10217 1.745113,3.42873 0.113815,0.36735 0.37927,0.65319 0.568958,0.65319 0.189694,0 -0.265571,-1.1428 -1.024227,-2.57142 -2.427825,-4.61152 -2.389904,-4.28626 -0.910539,-5.59243 0.607013,-0.53038 1.071936,-0.78579 1.38958,-0.77049 z m -4.576465,4.85242 c 0.227516,0 1.631856,2.36801 3.149161,5.26582 1.51742,2.938 2.731316,5.46947 2.693376,5.63274 -0.03793,0.16327 -1.100244,0.93855 -2.390035,1.63245 -1.858749,1.06126 -2.428222,1.22466 -2.80758,0.81649 -0.568986,-0.65309 -5.424992,-9.87803 -5.424992,-10.32702 0,-0.40817 4.135118,-2.97967 4.78007,-3.02048 z m 105.393052,0 c 0.1897,0 1.32766,0.61249 2.54144,1.30638 1.25196,0.73473 2.23863,1.51002 2.23863,1.7141 0,0.48982 -4.43862,8.97999 -5.23534,10.04125 -0.64494,0.81636 -0.6453,0.81628 -2.99723,-0.48989 -1.32784,-0.73472 -2.39004,-1.51002 -2.39004,-1.71411 0,-0.61226 5.50111,-10.85773 5.84254,-10.85773 z m -8.19485,5.30665 c 0.0379,0 0.75855,0.44864 1.59318,1.02009 0.83465,0.57145 1.51774,1.18392 1.51774,1.34721 0,0.16327 -0.34128,0.89798 -0.75861,1.63245 -0.83464,1.42862 -0.94864,1.4286 -3.30057,-0.24494 l -0.83509,-0.57103 0.83509,-1.59215 c 0.45526,-0.85718 0.87237,-1.59163 0.94826,-1.59163 z m -88.927389,0.0408 0.872298,1.50999 c 0.796592,1.42863 0.796665,1.55089 0.189652,2.0407 -0.341332,0.32653 -1.100097,0.81652 -1.669148,1.14308 -1.024131,0.57145 -1.100362,0.53051 -1.821078,-0.73484 -0.948344,-1.67328 -0.872663,-1.96011 0.948263,-3.06131 z" />
  </g>
</svg>
